<?xml version="1.0" encoding="UTF-8"?>
<svg width="116px" height="38px" viewBox="0 0 116 38" version="1.1" xmlns="http://www.w3.org/2000/svg" xmlns:xlink="http://www.w3.org/1999/xlink">
    <!-- Generator: Sketch 54.1 (76490) - https://sketchapp.com -->
    <title>Group</title>
    <desc>Created with Sketch.</desc>
    <g id="Page-1" stroke="none" stroke-width="1" fill="none" fill-rule="evenodd">
        <g id="Artboard" transform="translate(-41.000000, -66.000000)" fill="#CCCCCC" fill-rule="nonzero">
            <g id="Group" transform="translate(41.344000, 65.363281)">
                <path d="M4.34545313,11.7734375 C3.85782048,11.7734375 3.41234967,11.6834319 3.00902734,11.503418 C2.60570501,11.323404 2.26732949,11.0465513 1.99389063,10.6728516 L1.91185938,10.6728516 C1.96654715,11.1103538 1.99389063,11.5250631 1.99389063,11.9169922 L1.99389063,15 L0.859125,15 L0.859125,4.14453125 L1.78197656,4.14453125 L1.93920313,5.16992188 L1.99389063,5.16992188 C2.28555875,4.75976357 2.62507358,4.46354258 3.01244531,4.28125 C3.39981704,4.09895742 3.84414854,4.0078125 4.34545313,4.0078125 C5.33894768,4.0078125 6.10570433,4.34732733 6.64574609,5.02636719 C7.18578786,5.70540704 7.45580469,6.65787147 7.45580469,7.88378906 C7.45580469,9.11426396 7.18123061,10.0701463 6.63207422,10.7514648 C6.08291783,11.4327834 5.32071842,11.7734375 4.34545313,11.7734375 Z M4.18139063,4.97167969 C3.4157618,4.97167969 2.8620564,5.18359163 2.52025781,5.60742188 C2.17845923,6.03125212 2.00300525,6.70572454 1.99389063,7.63085938 L1.99389063,7.88378906 C1.99389063,8.9365287 2.1693446,9.68961362 2.52025781,10.1430664 C2.87117103,10.5965192 3.43399092,10.8232422 4.20873438,10.8232422 C4.85587303,10.8232422 5.36286666,10.5612005 5.72973047,10.0371094 C6.09659428,9.51301821 6.28002344,8.79069471 6.28002344,7.87011719 C6.28002344,6.93586772 6.09659428,6.21924078 5.72973047,5.72021484 C5.36286666,5.22118891 4.84675854,4.97167969 4.18139063,4.97167969 Z M16.3167881,7.88378906 C16.3167881,9.10514934 16.009174,10.0587531 15.3939366,10.7446289 C14.7786991,11.4305047 13.9287727,11.7734375 12.8441319,11.7734375 C12.1742067,11.7734375 11.5794861,11.6162125 11.0599522,11.3017578 C10.5404184,10.9873031 10.1393807,10.5361358 9.85682721,9.94824219 C9.57427372,9.36034862 9.43299909,8.67220446 9.43299909,7.88378906 C9.43299909,6.66242879 9.73833457,5.71110367 10.3490147,5.02978516 C10.9596948,4.34846665 11.8073426,4.0078125 12.8919835,4.0078125 C13.9401658,4.0078125 14.7730025,4.35644183 15.3905186,5.05371094 C16.0080347,5.75098005 16.3167881,6.69432999 16.3167881,7.88378906 Z M10.6087803,7.88378906 C10.6087803,8.8408251 10.8001847,9.56998447 11.1829991,10.0712891 C11.5658135,10.5725937 12.1286334,10.8232422 12.8714756,10.8232422 C13.6143179,10.8232422 14.1782771,10.573733 14.5633702,10.074707 C14.9484633,9.5756811 15.1410069,8.84538241 15.1410069,7.88378906 C15.1410069,6.93131034 14.9484633,6.20784752 14.5633702,5.71337891 C14.1782771,5.21891029 13.6097607,4.97167969 12.8578038,4.97167969 C12.1149615,4.97167969 11.5544202,5.21549235 11.1761631,5.703125 C10.797906,6.19075765 10.6087803,6.9176384 10.6087803,7.88378906 Z M24.5557013,11.6367188 L23.1816779,7.24121094 C23.0950889,6.97232938 22.9333066,6.36165841 22.6963263,5.40917969 L22.6416388,5.40917969 C22.4593462,6.20670972 22.2998426,6.82193794 22.1631232,7.25488281 L20.7480841,11.6367188 L19.4355841,11.6367188 L17.3916388,4.14453125 L18.5810919,4.14453125 C19.0641673,6.02670212 19.4321649,7.45995602 19.6850958,8.44433594 C19.9380268,9.42871586 20.0827193,10.0917952 20.1191779,10.4335938 L20.1738654,10.4335938 C20.2239958,10.1738268 20.3048869,9.83772993 20.4165411,9.42529297 C20.5281953,9.01285601 20.6250368,8.6858736 20.7070685,8.44433594 L22.0810919,4.14453125 L23.3115607,4.14453125 L24.6514044,8.44433594 C24.906614,9.22819402 25.0797894,9.88671608 25.1709357,10.4199219 L25.2256232,10.4199219 C25.2438524,10.2558586 25.2928428,10.0029314 25.3725958,9.66113281 C25.4523488,9.31933423 25.9274417,7.48048543 26.7978888,4.14453125 L27.97367,4.14453125 L25.902381,11.6367188 L24.5557013,11.6367188 Z M32.9039894,11.7734375 C31.796562,11.7734375 30.9227101,11.4362013 30.2824074,10.7617188 C29.6421047,10.0872362 29.3219582,9.15072214 29.3219582,7.95214844 C29.3219582,6.74446011 29.6193185,5.7851598 30.214048,5.07421875 C30.8087776,4.3632777 31.607435,4.0078125 32.6100441,4.0078125 C33.5488509,4.0078125 34.291682,4.31656592 34.8385598,4.93408203 C35.3854375,5.55159814 35.6588723,6.36620588 35.6588723,7.37792969 L35.6588723,8.09570312 L30.4977394,8.09570312 C30.520526,8.97526481 30.7426918,9.64290137 31.1642434,10.0986328 C31.5857949,10.5543643 32.1793762,10.7822266 32.9450051,10.7822266 C33.7516497,10.7822266 34.5491678,10.6136085 35.3375832,10.2763672 L35.3375832,11.2880859 C34.9365395,11.4612639 34.5571488,11.5854488 34.1993996,11.6606445 C33.8416504,11.7358402 33.4098514,11.7734375 32.9039894,11.7734375 Z M32.5963723,4.95800781 C31.9948068,4.95800781 31.5151566,5.15396939 31.1574074,5.54589844 C30.7996582,5.93782748 30.5888856,6.48013977 30.5250832,7.17285156 L34.4420754,7.17285156 C34.4420754,6.45735319 34.2825718,5.90934435 33.9635598,5.52880859 C33.6445477,5.14827284 33.1888231,4.95800781 32.5963723,4.95800781 Z M41.423176,4.0078125 C41.75586,4.0078125 42.0543596,4.03515598 42.3186838,4.08984375 L42.1614573,5.14257812 C41.8515599,5.07421841 41.5781251,5.04003906 41.3411448,5.04003906 C40.735022,5.04003906 40.2166352,5.28613035 39.785969,5.77832031 C39.3553028,6.27051027 39.1399729,6.88345987 39.1399729,7.6171875 L39.1399729,11.6367188 L38.0052073,11.6367188 L38.0052073,4.14453125 L38.9417307,4.14453125 L39.0716135,5.53222656 L39.126301,5.53222656 C39.4042972,5.04459392 39.7392548,4.66862111 40.1311838,4.40429688 C40.5231129,4.13997264 40.9537726,4.0078125 41.423176,4.0078125 Z M47.0165814,11.7734375 C45.909154,11.7734375 45.035302,11.4362013 44.3949993,10.7617188 C43.7546967,10.0872362 43.4345501,9.15072214 43.4345501,7.95214844 C43.4345501,6.74446011 43.7319104,5.7851598 44.32664,5.07421875 C44.9213695,4.3632777 45.7200269,4.0078125 46.7226361,4.0078125 C47.6614428,4.0078125 48.4042739,4.31656592 48.9511517,4.93408203 C49.4980294,5.55159814 49.7714642,6.36620588 49.7714642,7.37792969 L49.7714642,8.09570312 L44.6103314,8.09570312 C44.6331179,8.97526481 44.8552837,9.64290137 45.2768353,10.0986328 C45.6983869,10.5543643 46.2919682,10.7822266 47.057597,10.7822266 C47.8642417,10.7822266 48.6617597,10.6136085 49.4501751,10.2763672 L49.4501751,11.2880859 C49.0491314,11.4612639 48.6697407,11.5854488 48.3119915,11.6606445 C47.9542423,11.7358402 47.5224433,11.7734375 47.0165814,11.7734375 Z M46.7089642,4.95800781 C46.1073987,4.95800781 45.6277485,5.15396939 45.2699993,5.54589844 C44.9122502,5.93782748 44.7014775,6.48013977 44.6376751,7.17285156 L48.5546673,7.17285156 C48.5546673,6.45735319 48.3951637,5.90934435 48.0761517,5.52880859 C47.7571397,5.14827284 47.3014151,4.95800781 46.7089642,4.95800781 Z M57.2174086,10.6318359 L57.1558851,10.6318359 C56.631794,11.3929075 55.8479477,11.7734375 54.8043226,11.7734375 C53.8245,11.7734375 53.0623006,11.4384799 52.5177015,10.7685547 C51.9731025,10.0986295 51.700807,9.14616503 51.700807,7.91113281 C51.700807,6.6761006 51.9742418,5.71680029 52.5211195,5.03320312 C53.0679973,4.34960596 53.8290573,4.0078125 54.8043226,4.0078125 C55.8206038,4.0078125 56.5998928,4.37694943 57.1422133,5.11523438 L57.2310805,5.11523438 L57.1832289,4.57519531 L57.1558851,4.04882812 L57.1558851,1 L58.2906508,1 L58.2906508,11.6367188 L57.3677992,11.6367188 L57.2174086,10.6318359 Z M54.9478773,10.8232422 C55.7226208,10.8232422 56.2843014,10.6124696 56.6329359,10.190918 C56.9815705,9.76936638 57.1558851,9.0891974 57.1558851,8.15039062 L57.1558851,7.91113281 C57.1558851,6.84927854 56.9792919,6.09163638 56.6261,5.63818359 C56.2729081,5.18473081 55.7089489,4.95800781 54.9342055,4.95800781 C54.2688375,4.95800781 53.7595653,5.21663153 53.4063734,5.73388672 C53.0531816,6.25114191 52.8765883,6.9814406 52.8765883,7.92480469 C52.8765883,8.88184072 53.0520422,9.60416423 53.4029555,10.0917969 C53.7538687,10.5794295 54.2688375,10.8232422 54.9478773,10.8232422 Z M68.6434771,4.02148438 C69.627857,4.02148438 70.392335,4.35758127 70.9369341,5.02978516 C71.4815332,5.70198904 71.7538286,6.65331416 71.7538286,7.88378906 C71.7538286,9.11426396 71.4792545,10.0701463 70.9300982,10.7514648 C70.3809418,11.4327834 69.6187424,11.7734375 68.6434771,11.7734375 C68.1558444,11.7734375 67.7103736,11.6834319 67.3070513,11.503418 C66.903729,11.323404 66.5653534,11.0465513 66.2919146,10.6728516 L66.2098833,10.6728516 L65.9706255,11.6367188 L65.1571489,11.6367188 L65.1571489,1 L66.2919146,1 L66.2919146,3.58398438 C66.2919146,4.16276331 66.2736856,4.68228937 66.2372271,5.14257812 L66.2919146,5.14257812 C66.820563,4.39517855 67.6044094,4.02148438 68.6434771,4.02148438 Z M68.4794146,4.97167969 C67.7046711,4.97167969 67.1464085,5.19384543 66.8046099,5.63818359 C66.4628113,6.08252175 66.2919146,6.83104942 66.2919146,7.88378906 C66.2919146,8.9365287 66.4673685,9.68961362 66.8182818,10.1430664 C67.169195,10.5965192 67.7320149,10.8232422 68.5067583,10.8232422 C69.2040274,10.8232422 69.7235535,10.5691757 70.0653521,10.0610352 C70.4071506,9.55289459 70.5780474,8.82259591 70.5780474,7.87011719 C70.5780474,6.89485189 70.4071506,6.16797114 70.0653521,5.68945312 C69.7235535,5.21093511 69.1949129,4.97167969 68.4794146,4.97167969 Z M72.6782887,4.14453125 L73.8950855,4.14453125 L75.5357105,8.41699219 C75.8957384,9.39225748 76.1190434,10.096352 76.2056324,10.5292969 L76.2603199,10.5292969 C76.319565,10.2968738 76.4437499,9.89925412 76.6328785,9.33642578 C76.822007,8.77359745 77.4406532,7.04298324 78.4888355,4.14453125 L79.7056324,4.14453125 L76.4859058,12.6757812 C76.1668938,13.5188844 75.794339,14.117023 75.3682301,14.4702148 C74.9421212,14.8234067 74.4191772,15 73.7993824,15 C73.4530265,15 73.111233,14.9612634 72.7739918,14.8837891 L72.7739918,13.9746094 C73.0246441,14.0292971 73.3049147,14.0566406 73.6148121,14.0566406 C74.3941129,14.0566406 74.9500969,13.619145 75.2827808,12.7441406 L75.699773,11.6777344 L72.6782887,4.14453125 Z" id="poweredby"></path>
                <path d="M16.492,26.2607187 L16.492,26.9607187 L12.824,26.9607187 L12.824,26.2607187 C12.824,26.1300514 12.7586673,26.0647187 12.628,26.0647187 L3.864,26.0647187 C3.73333268,26.0647187 3.668,26.1300514 3.668,26.2607187 L3.668,28.5007188 C3.668,28.6127193 3.73333268,28.6687187 3.864,28.6687187 L12.628,28.6687187 C13.7106721,28.6687187 14.6253296,29.046715 15.372,29.8027187 C16.1186704,30.5587225 16.492,31.4687134 16.492,32.5327188 L16.492,34.7727187 C16.492,35.8367241 16.1186704,36.746715 15.372,37.5027187 C14.6253296,38.2587225 13.7106721,38.6367188 12.628,38.6367188 L3.864,38.6367188 C2.79999468,38.6367188 1.89000378,38.2587225 1.134,37.5027187 C0.37799622,36.746715 -2.84217094e-14,35.8367241 -2.84217094e-14,34.7727187 L-2.84217094e-14,34.0727188 L3.668,34.0727188 L3.668,34.7727187 C3.668,34.9033861 3.73333268,34.9687187 3.864,34.9687187 L12.628,34.9687187 C12.7586673,34.9687187 12.824,34.9033861 12.824,34.7727187 L12.824,32.5327188 C12.824,32.4207182 12.7586673,32.3647188 12.628,32.3647188 L3.864,32.3647188 C2.79999468,32.3647188 1.89000378,31.9867225 1.134,31.2307187 C0.37799622,30.474715 -2.84217094e-14,29.5647241 -2.84217094e-14,28.5007188 L-2.84217094e-14,26.2607187 C-2.84217094e-14,25.1967134 0.37799622,24.2867225 1.134,23.5307188 C1.89000378,22.774715 2.79999468,22.3967187 3.864,22.3967187 L12.628,22.3967187 C13.7106721,22.3967187 14.6253296,22.774715 15.372,23.5307188 C16.1186704,24.2867225 16.492,25.1967134 16.492,26.2607187 Z M42.6275295,22.3967187 L46.5195295,22.3967187 L40.4155295,38.6367188 L37.5595295,38.6367188 L32.6595295,27.7727187 L27.9555295,38.6367188 L25.1275295,38.6367188 L18.7435295,22.3967187 L22.6355295,22.3967187 L26.5555295,31.9727187 L30.7275295,22.3967187 L34.5355295,22.3967187 L38.9595295,32.0287187 L42.6275295,22.3967187 Z M49.135059,38.6367188 L49.135059,22.3967187 L52.803059,22.3967187 L52.803059,38.6367188 L49.135059,38.6367188 Z M49.135059,17.0767187 L52.803059,17.0767187 L52.803059,20.7727187 L49.135059,20.7727187 L49.135059,17.0767187 Z M76.6705884,22.3967187 C77.7345938,22.3967187 78.6445847,22.774715 79.4005884,23.5307188 C80.1565922,24.2867225 80.5345884,25.1967134 80.5345884,26.2607187 L80.5345884,38.6367188 L76.8945884,38.6367188 L76.8945884,26.2607187 C76.8945884,26.1300514 76.8199225,26.0647187 76.6705884,26.0647187 L70.5665884,26.0647187 C70.4545879,26.0647187 70.3985884,26.1300514 70.3985884,26.2607187 L70.3985884,38.6367188 L66.7025884,38.6367188 L66.7025884,26.2607187 C66.7025884,26.1300514 66.646589,26.0647187 66.5345884,26.0647187 L60.4025884,26.0647187 C60.2719211,26.0647187 60.2065884,26.1300514 60.2065884,26.2607187 L60.2065884,38.6367188 L56.5385884,38.6367188 L56.5385884,22.3967187 L76.6705884,22.3967187 Z M88.4141179,34.9687187 L88.4141179,38.6367188 L84.7461179,38.6367188 L84.7461179,34.9687187 L88.4141179,34.9687187 Z M104.133647,22.3967187 C105.197653,22.3967187 106.107644,22.774715 106.863647,23.5307188 C107.619651,24.2867225 107.997647,25.1967134 107.997647,26.2607187 L107.997647,38.6367188 L95.3696474,38.6367188 C94.3056421,38.6367188 93.3956512,38.2587225 92.6396474,37.5027187 C91.8836436,36.746715 91.5056474,35.8367241 91.5056474,34.7727187 L91.5056474,28.6687187 L104.329647,28.6687187 L104.329647,26.2607187 C104.329647,26.1300514 104.264315,26.0647187 104.133647,26.0647187 L91.5056474,26.0647187 L91.5056474,22.3967187 L104.133647,22.3967187 Z M104.329647,34.9687187 L104.329647,32.3647188 L95.1736474,32.3647188 L95.1736474,34.7727187 C95.1736474,34.9033861 95.2389801,34.9687187 95.3696474,34.9687187 L104.329647,34.9687187 Z M111.761177,38.6367188 L111.761177,22.3967187 L115.429177,22.3967187 L115.429177,38.6367188 L111.761177,38.6367188 Z M111.761177,17.0767187 L115.429177,17.0767187 L115.429177,20.7727187 L111.761177,20.7727187 L111.761177,17.0767187 Z" id="swim.ai"></path>
            </g>
        </g>
    </g>
</svg>